<svg id="Layer_1" data-name="Layer 1" xmlns="http://www.w3.org/2000/svg" viewBox="0 0 500 500"><defs><style>.cls-1{fill:#5ebea3;}</style></defs><path class="cls-1" d="M312.9,198.89c-1.34-.09-2.65-.27-3.95-.27-23.4,0-46.81.1-70.21-.09-4.32,0-5.62,1.29-5.5,5.56.27,9.83.14,19.68,0,29.51,0,3.07.92,4.13,4.09,4.09,14.16-.15,28.32-.07,42.48-.08,3.95,0,7,1.49,8.45,5.33a6.84,6.84,0,0,1-2.4,8.4,11.31,11.31,0,0,1-6.17,1.84c-13.86.16-27.72.2-41.58,0-3.67,0-4.93,1-4.88,4.77.18,13.42,0,26.84.07,40.25,0,7-2.67,9.77-9.61,9.77-27.13,0-54.26.05-81.39-.07-3.62,0-5,.92-4.86,4.75.29,6.1,0,12.22.06,18.33.05,7.36,3.31,10.7,10.63,10.73,15.51,0,31-.09,46.51.12,2.48,0,5.77.76,7.2,2.44s2.1,5.22,1.69,7.71c-.55,3.32-3.51,5.18-7,5.18-17.44.05-34.9.45-52.31-.2-13.46-.5-22.36-11.39-22.39-25.89q-.09-42.7,0-85.41,0-45.17,0-90.33c0-17.13,9.81-27,26.79-27H302.91c16,0,26,9.86,26,25.89.07,15.5,0,31,0,46.5,0,6.43-2.69,10.1-7.43,10.29s-7.78-3.33-8.25-9.6C313.22,200.67,313.06,200,312.9,198.89ZM225.15,183c27.86,0,55.72,0,83.58.06,3.35,0,4.77-.75,4.65-4.46-.27-8,0-16.08-.09-24.13-.07-7.59-3-10.41-10.68-10.42Q225.3,144,148,144c-7.24,0-10.39,3.16-10.43,10.33,0,7.9.18,15.8-.13,23.69-.15,4,1.16,5,5.06,5C170,182.86,197.59,182.93,225.15,183Zm-47.77,70.3v0c-11.92,0-23.84.07-35.75-.05-3,0-4.23.85-4.18,4.06.16,10.27.13,20.56,0,30.83-.05,3.19.85,4.5,4.28,4.48q36-.15,71.93,0c3.07,0,4.23-1,4.19-4.11q-.21-15.63,0-31.27c0-3.14-1.18-4.07-4.22-4C201.51,253.33,189.44,253.25,177.38,253.25Zm40.06-15.82V199.14a6.79,6.79,0,0,0-1.57-.47c-25,0-50.06,0-75.09-.1-3,0-3.32,1.6-3.3,4,.05,9.54,0,19.07,0,28.61,0,6.42,0,6.44,6.3,6.45q34.65,0,69.29,0C214.39,237.62,215.7,237.51,217.44,237.43Z"/><path class="cls-1" d="M236.79,368.9a5.69,5.69,0,0,0-.65-.24,5.47,5.47,0,0,1-4-6.63c1.16-4.6,2.3-9.2,3.45-13.79.9-3.62,1.83-7.24,2.71-10.86a28,28,0,0,1,7.64-13.48q26.51-26.47,53-53,5.71-5.71,11.41-11.44a4.19,4.19,0,0,0,.43-.54l31,31-.45.46L315,316.71Q295.86,335.85,276.72,355a27.24,27.24,0,0,1-12,7.12c-2.08.59-4.19,1.08-6.29,1.61l-19.35,4.83c-.39.1-.77.23-1.15.34Z"/><path class="cls-1" d="M363.74,260.36a2.88,2.88,0,0,0-.11.49,20.73,20.73,0,0,1-5.78,13c-2.59,2.74-5.32,5.36-8,8a.89.89,0,0,1-.14.12l-30.89-30.9a1.67,1.67,0,0,1,.2-.24c2.59-2.59,5.16-5.22,7.8-7.76a21.07,21.07,0,0,1,12.53-5.88,21.83,21.83,0,0,1,24,17.25c.16.78.2,1.57.31,2.36,0,.21.08.41.12.62Z"/></svg>