<svg id="Layer_1" data-name="Layer 1" xmlns="http://www.w3.org/2000/svg" viewBox="0 0 500 500"><defs><style>.cls-1{fill:#7ecab5;}</style></defs><path class="cls-1" d="M275,156.55a89.74,89.74,0,1,0-13.66,138.11l.19.2,66.91,66.9a17.58,17.58,0,1,0,24.86-24.86L286.36,270a1.8,1.8,0,0,0-.2-.19A89.89,89.89,0,0,0,275,156.55ZM258,266.54a65.81,65.81,0,1,1,0-93.07A65.87,65.87,0,0,1,258,266.54Z"/><path class="cls-1" d="M211.5,174.65a18.85,18.85,0,0,1,19.06,18.8c-.11,10.42-7.76,19-19,19.12a19,19,0,1,1-.06-37.92Z"/><path class="cls-1" d="M249.38,237.23a49.45,49.45,0,0,0-9-17.81c-4.82-6-10.56-7.14-16.41-1a19.18,19.18,0,0,1-3.84,3.52c-3.3,2.31-5.17,1.83-6.25,3.1-1.26,1.48-1.15,5,4.29,13.73a1.42,1.42,0,0,1-.36,1.44l-5.26,5.27a1.45,1.45,0,0,1-2,0l-5.26-5.27a1.42,1.42,0,0,1-.36-1.44c5.7-9.07,5.56-12.52,4.37-14-.83-1-1.84-.66-4.59-2.37s-2.85-2.44-5.62-4.87c-4-3.49-8-4.11-11.92-1.81a15,15,0,0,0-4.43,3.93A61.13,61.13,0,0,0,174,235.81a9.56,9.56,0,0,0-.68,4.18c.65,6.45,5.07,10.36,11.62,10.36h51.6A27.55,27.55,0,0,0,241,250C246.69,249.17,250.94,242.81,249.38,237.23Z"/></svg>