<svg id="Layer_1" data-name="Layer 1" xmlns="http://www.w3.org/2000/svg" viewBox="0 0 500 500"><defs><style>.cls-1{fill:#7ecab5;}.cls-2{fill:#5ebea3;}</style></defs><path class="cls-1" d="M234.4,126.46c33.92,0,61.84,27.08,61.5,60.68s-25,61.35-61.3,61.69c-36,.34-61.79-29.82-61.33-61.5C173.77,153.23,200.2,126.49,234.4,126.46Z"/><path class="cls-1" d="M356.65,328.41a159.26,159.26,0,0,0-29.13-57.47c-15.56-19.35-34.06-23-52.95-3.38-5.77,6-6.27,7.08-12.38,11.35-10.66,7.46-16.7,5.9-20.17,10-4.06,4.77-3.71,16.12,13.83,44.3a4.62,4.62,0,0,1-1.15,4.66l-17,17a4.62,4.62,0,0,1-6.56,0l-17-17a4.62,4.62,0,0,1-1.14-4.66C231.4,303.94,231,292.82,227.1,288.1c-2.68-3.29-5.93-2.14-14.8-7.66-9.07-5.65-9.21-7.87-18.15-15.69-12.89-11.27-25.74-13.28-38.46-5.85a48.66,48.66,0,0,0-14.3,12.69,197.08,197.08,0,0,0-27.89,52.23c-1.58,4.32-2.68,8.94-2.22,13.5,2.11,20.81,16.38,33.41,37.5,33.42h84.76q40.89,0,81.76,0a93.18,93.18,0,0,0,14.34-1C348,366.92,361.66,346.4,356.65,328.41Z"/><path class="cls-2" d="M369.82,157.39a12,12,0,0,1,2,2.21,14.78,14.78,0,0,1,2.55,9,13.77,13.77,0,0,1-2.18,7.93,10.26,10.26,0,0,1-2.17,2.42c-4.46,3.58-9.75,1.1-11.49,3.78-1.16,1.8.82,3.51-.35,5.3-1.57,2.38-7.33,2.78-10.6,0-4.22-3.58-3.23-11.52-.36-13.14.69-.39.82,0,4.25,0,4.51.05,6.67-.51,8.3-1.35a5.06,5.06,0,0,0,1.84-1.43,5.51,5.51,0,0,0,1-3.44,5.39,5.39,0,0,0-1.34-3.89,4.88,4.88,0,0,0-3.74-1.42,5.46,5.46,0,0,0-4,1.45c-1.27,1.36-.6,2.64-1.42,3.93-1.78,2.8-9.45,3-11.38,0-2-3.22,2.26-10.2,7.6-13.26a17.62,17.62,0,0,1,9.3-2Q365.26,153.43,369.82,157.39Zm-22,47.11a6.07,6.07,0,0,1-2-4.63,6.29,6.29,0,0,1,2-4.74,7.28,7.28,0,0,1,5.2-1.91,7.19,7.19,0,0,1,5.13,1.91,6.29,6.29,0,0,1,2,4.74,6.07,6.07,0,0,1-2,4.63,7.25,7.25,0,0,1-5.13,1.87A7.34,7.34,0,0,1,347.83,204.5Z"/></svg>