<svg id="Layer_1" data-name="Layer 1" xmlns="http://www.w3.org/2000/svg" viewBox="0 0 500 500"><defs><style>.cls-1,.cls-2{fill:#5ebea3;}.cls-1{opacity:0.25;}</style></defs><circle class="cls-1" cx="250" cy="252.45" r="174.18"/><path class="cls-2" d="M250,314.4H188c-10.23,0-14.64-4.34-14.64-14.42q0-47.58,0-95.16c0-9.84,4.44-14.24,14.37-14.24,11.6,0,23.21-.27,34.79.16a22.16,22.16,0,0,1,10.38,3.42,152.37,152.37,0,0,1,15.47,11.47,12.23,12.23,0,0,0,8.43,2.74c18.73-.11,37.45-.06,56.18-.05,9.11,0,13.74,4.58,13.75,13.58q0,39.82,0,79.65c0,8.47-4.43,12.83-13,12.84Q281.85,314.44,250,314.4Z"/></svg>