<svg id="Layer_1" data-name="Layer 1" xmlns="http://www.w3.org/2000/svg" viewBox="0 0 500 500"><defs><style>.cls-1{fill:#5ebea3;}</style></defs><path class="cls-1" d="M130.1,386.41a9.76,9.76,0,0,0-1.36-.52,11.5,11.5,0,0,1-8.45-14q3.64-14.52,7.26-29c1.9-7.63,3.86-15.23,5.71-22.87a59,59,0,0,1,16.08-28.38q55.82-55.75,111.57-111.55,12-12,24-24.08a12.88,12.88,0,0,0,.91-1.13c21.83,21.84,43.5,43.51,65.25,65.25-.2.21-.57.6-1,1l-55.4,55.4q-40.29,40.31-80.58,80.63a57.28,57.28,0,0,1-25.22,15c-4.38,1.24-8.83,2.28-13.25,3.38L135,385.68c-.83.2-1.63.48-2.44.73Z"/><path class="cls-1" d="M397.43,157.84a8,8,0,0,0-.24,1A43.5,43.5,0,0,1,385,186.16c-5.45,5.78-11.21,11.28-16.83,16.9-.13.12-.28.22-.3.24l-65.06-65.06a5.44,5.44,0,0,1,.42-.52c5.47-5.45,10.87-11,16.44-16.33A44.37,44.37,0,0,1,346.06,109a45.94,45.94,0,0,1,50.45,36.33c.34,1.63.44,3.31.66,5,.06.44.18.87.26,1.31Z"/></svg>