<svg id="Layer_1" data-name="Layer 1" xmlns="http://www.w3.org/2000/svg" viewBox="0 0 500 500"><defs><style>.cls-1{fill:#5ebea3;}</style></defs><path class="cls-1" d="M242.77,341.65q-46.59,0-93.19,0c-15.36,0-22-6.52-22-21.65q0-71.46,0-142.93c0-14.77,6.67-21.38,21.58-21.39,17.42,0,34.86-.39,52.25.24A33.32,33.32,0,0,1,217,161.07c8.16,5.07,15.75,11.14,23.23,17.22,3.87,3.15,7.82,4.14,12.67,4.12,28.12-.17,56.25-.1,84.37-.07,13.68,0,20.64,6.87,20.65,20.38q0,59.8,0,119.63c0,12.72-6.64,19.28-19.47,19.29Q290.62,341.7,242.77,341.65Z"/></svg>