<svg id="Layer_1" data-name="Layer 1" xmlns="http://www.w3.org/2000/svg" viewBox="0 0 500 500"><defs><style>.cls-1{fill:#efeef3;}</style></defs><path class="cls-1" d="M256.47,126.46c33.91,0,61.84,27.08,61.5,60.68s-25,61.35-61.3,61.69c-36,.34-61.79-29.82-61.33-61.5C195.84,153.23,222.26,126.49,256.47,126.46Z"/><path class="cls-1" d="M378.71,328.41a159.08,159.08,0,0,0-29.12-57.47c-15.56-19.35-34.06-23-52.95-3.38-5.77,6-6.28,7.08-12.38,11.35-10.66,7.46-16.7,5.9-20.18,10-4.05,4.77-3.7,16.12,13.84,44.3a4.64,4.64,0,0,1-1.15,4.66l-17,17a4.62,4.62,0,0,1-6.56,0l-17-17a4.64,4.64,0,0,1-1.15-4.66c18.39-29.27,17.95-40.39,14.09-45.11-2.69-3.29-5.93-2.14-14.8-7.66-9.07-5.65-9.21-7.87-18.15-15.69-12.89-11.27-25.74-13.28-38.46-5.85a48.41,48.41,0,0,0-14.3,12.69,197.4,197.4,0,0,0-27.9,52.23c-1.57,4.32-2.67,8.94-2.21,13.5,2.11,20.81,16.37,33.41,37.5,33.42h84.76q40.88,0,81.76,0a93,93,0,0,0,14.33-1C370,366.92,383.73,346.4,378.71,328.41Z"/></svg>