<svg id="Layer_1" data-name="Layer 1" xmlns="http://www.w3.org/2000/svg" viewBox="0 0 500 500"><defs><style>.cls-1{fill:#7ecab5;}</style></defs><path class="cls-1" d="M350.86,220.35v129.2c0,11.71-11.61,21.21-25.94,21.21H297c-14.47,0-26.2-9.59-26.2-21.42V297.62c0-8.39-8.32-15.19-18.59-15.19H233.37c-10.29,0-18.63,6.81-18.63,15.22v51.73c0,11.81-11.72,21.38-26.16,21.38H160.64c-14.33,0-25.95-9.5-25.95-21.21V220.67c0-16.86,9.05-32.87,24.75-43.8l63.47-44.2c12-8.34,29.65-8.27,41.56.14l62.14,44.08C342,187.82,350.86,203.67,350.86,220.35Z"/></svg>