<svg id="Layer_1" data-name="Layer 1" xmlns="http://www.w3.org/2000/svg" viewBox="0 0 500 500"><defs><style>.cls-1{fill:#7ecab5;}.cls-2{fill:#5ebea3;}</style></defs><path class="cls-1" d="M230.28,126.46c33.91,0,61.84,27.08,61.5,60.68s-25,61.35-61.3,61.69c-36,.34-61.79-29.82-61.33-61.5C169.65,153.23,196.07,126.49,230.28,126.46Z"/><path class="cls-1" d="M352.52,328.41a159.24,159.24,0,0,0-29.12-57.47c-15.56-19.35-34.06-23-52.95-3.38-5.78,6-6.28,7.08-12.38,11.35-10.66,7.46-16.7,5.9-20.18,10-4,4.77-3.7,16.12,13.84,44.3a4.64,4.64,0,0,1-1.15,4.66l-17,17a4.62,4.62,0,0,1-6.56,0l-17-17a4.64,4.64,0,0,1-1.15-4.66c18.39-29.27,18-40.39,14.09-45.11-2.69-3.29-5.93-2.14-14.8-7.66-9.07-5.65-9.21-7.87-18.15-15.69-12.89-11.27-25.74-13.28-38.46-5.85a48.41,48.41,0,0,0-14.3,12.69,197.4,197.4,0,0,0-27.9,52.23c-1.57,4.32-2.67,8.94-2.21,13.5,2.11,20.81,16.37,33.41,37.5,33.42h84.76q40.88,0,81.76,0a93,93,0,0,0,14.33-1C343.85,366.92,357.54,346.4,352.52,328.41Z"/><path class="cls-2" d="M375.68,189.58c-4.71,3.68-13.23-3.38-16.64,0s3.76,12.15,0,17c-3.07,4-12.42,4-15.49,0-3.76-4.87,3.44-13.61,0-17s-11.93,3.68-16.64,0c-3.76-3-3.76-11.69,0-14.64,4.71-3.69,13.23,3.38,16.64,0s-3.77-12.21,0-17.11c3.08-4,12.41-4,15.49,0,3.78,4.9-3.46,13.69,0,17.11s11.93-3.69,16.64,0C379.45,177.89,379.45,186.63,375.68,189.58Z"/></svg>